<mxfile host="app.diagrams.net" modified="2024-06-15T00:04:09.357Z" agent="Mozilla/5.0 (Windows NT 10.0; Win64; x64) AppleWebKit/537.36 (KHTML, like Gecko) Chrome/125.0.0.0 Safari/537.36 Edg/125.0.0.0" etag="CqnrZJXrIv8sRGY260Nu" version="24.5.4" type="device">
  <diagram name="Página-1" id="XwI4TaBxrWzS0RV1OAai">
    <mxGraphModel dx="1002" dy="577" grid="1" gridSize="10" guides="1" tooltips="1" connect="1" arrows="1" fold="1" page="1" pageScale="1" pageWidth="827" pageHeight="1169" math="0" shadow="0">
      <root>
        <mxCell id="0" />
        <mxCell id="1" parent="0" />
        <mxCell id="fa7prkuAf3Pvqcq8Uyu8-3" value="" style="edgeStyle=orthogonalEdgeStyle;rounded=0;orthogonalLoop=1;jettySize=auto;html=1;" edge="1" parent="1" source="fa7prkuAf3Pvqcq8Uyu8-1" target="fa7prkuAf3Pvqcq8Uyu8-2">
          <mxGeometry relative="1" as="geometry" />
        </mxCell>
        <mxCell id="fa7prkuAf3Pvqcq8Uyu8-1" value="inicio" style="strokeWidth=2;html=1;shape=mxgraph.flowchart.start_1;whiteSpace=wrap;" vertex="1" parent="1">
          <mxGeometry x="364" y="30" width="100" height="60" as="geometry" />
        </mxCell>
        <mxCell id="fa7prkuAf3Pvqcq8Uyu8-11" value="" style="edgeStyle=orthogonalEdgeStyle;rounded=0;orthogonalLoop=1;jettySize=auto;html=1;entryX=0.492;entryY=0.247;entryDx=0;entryDy=0;entryPerimeter=0;" edge="1" parent="1" source="fa7prkuAf3Pvqcq8Uyu8-2" target="fa7prkuAf3Pvqcq8Uyu8-4">
          <mxGeometry relative="1" as="geometry" />
        </mxCell>
        <mxCell id="fa7prkuAf3Pvqcq8Uyu8-2" value="x,&lt;div&gt;valor=1,&lt;/div&gt;&lt;div&gt;divisores=0&lt;/div&gt;" style="shape=parallelogram;html=1;strokeWidth=2;perimeter=parallelogramPerimeter;whiteSpace=wrap;rounded=1;arcSize=12;size=0.23;" vertex="1" parent="1">
          <mxGeometry x="364" y="140" width="100" height="60" as="geometry" />
        </mxCell>
        <mxCell id="fa7prkuAf3Pvqcq8Uyu8-10" value="" style="edgeStyle=orthogonalEdgeStyle;rounded=0;orthogonalLoop=1;jettySize=auto;html=1;" edge="1" parent="1" source="fa7prkuAf3Pvqcq8Uyu8-4" target="fa7prkuAf3Pvqcq8Uyu8-5">
          <mxGeometry relative="1" as="geometry" />
        </mxCell>
        <mxCell id="fa7prkuAf3Pvqcq8Uyu8-4" value="&lt;div&gt;&lt;br&gt;&lt;/div&gt;&lt;div&gt;x&lt;/div&gt;" style="html=1;strokeWidth=2;shape=manualInput;whiteSpace=wrap;rounded=1;size=26;arcSize=11;" vertex="1" parent="1">
          <mxGeometry x="364" y="240" width="100" height="60" as="geometry" />
        </mxCell>
        <mxCell id="fa7prkuAf3Pvqcq8Uyu8-7" value="" style="edgeStyle=orthogonalEdgeStyle;rounded=0;orthogonalLoop=1;jettySize=auto;html=1;" edge="1" parent="1" source="fa7prkuAf3Pvqcq8Uyu8-5" target="fa7prkuAf3Pvqcq8Uyu8-6">
          <mxGeometry relative="1" as="geometry" />
        </mxCell>
        <mxCell id="fa7prkuAf3Pvqcq8Uyu8-32" value="VERDADE" style="edgeLabel;html=1;align=center;verticalAlign=middle;resizable=0;points=[];" vertex="1" connectable="0" parent="fa7prkuAf3Pvqcq8Uyu8-7">
          <mxGeometry x="0.0762" y="1" relative="1" as="geometry">
            <mxPoint as="offset" />
          </mxGeometry>
        </mxCell>
        <mxCell id="fa7prkuAf3Pvqcq8Uyu8-34" value="" style="edgeStyle=orthogonalEdgeStyle;rounded=0;orthogonalLoop=1;jettySize=auto;html=1;" edge="1" parent="1" source="fa7prkuAf3Pvqcq8Uyu8-5" target="fa7prkuAf3Pvqcq8Uyu8-33">
          <mxGeometry relative="1" as="geometry" />
        </mxCell>
        <mxCell id="fa7prkuAf3Pvqcq8Uyu8-5" value="x&amp;gt;0" style="strokeWidth=2;html=1;shape=mxgraph.flowchart.decision;whiteSpace=wrap;" vertex="1" parent="1">
          <mxGeometry x="364" y="350" width="100" height="100" as="geometry" />
        </mxCell>
        <mxCell id="fa7prkuAf3Pvqcq8Uyu8-9" value="" style="edgeStyle=orthogonalEdgeStyle;rounded=0;orthogonalLoop=1;jettySize=auto;html=1;" edge="1" parent="1" source="fa7prkuAf3Pvqcq8Uyu8-6" target="fa7prkuAf3Pvqcq8Uyu8-8">
          <mxGeometry relative="1" as="geometry" />
        </mxCell>
        <mxCell id="fa7prkuAf3Pvqcq8Uyu8-6" value="enquanto&amp;nbsp;&lt;div&gt;valor &amp;lt;=x&lt;/div&gt;" style="strokeWidth=2;html=1;shape=mxgraph.flowchart.decision;whiteSpace=wrap;" vertex="1" parent="1">
          <mxGeometry x="160" y="350" width="100" height="100" as="geometry" />
        </mxCell>
        <mxCell id="fa7prkuAf3Pvqcq8Uyu8-13" value="" style="edgeStyle=orthogonalEdgeStyle;rounded=0;orthogonalLoop=1;jettySize=auto;html=1;" edge="1" parent="1" source="fa7prkuAf3Pvqcq8Uyu8-8" target="fa7prkuAf3Pvqcq8Uyu8-12">
          <mxGeometry relative="1" as="geometry" />
        </mxCell>
        <mxCell id="fa7prkuAf3Pvqcq8Uyu8-8" value="se x % valor = 0&lt;div&gt;divisores ++&lt;/div&gt;" style="strokeWidth=2;html=1;shape=mxgraph.flowchart.decision;whiteSpace=wrap;" vertex="1" parent="1">
          <mxGeometry x="160" y="490" width="100" height="100" as="geometry" />
        </mxCell>
        <mxCell id="fa7prkuAf3Pvqcq8Uyu8-24" value="" style="edgeStyle=orthogonalEdgeStyle;rounded=0;orthogonalLoop=1;jettySize=auto;html=1;" edge="1" parent="1" source="fa7prkuAf3Pvqcq8Uyu8-12" target="fa7prkuAf3Pvqcq8Uyu8-14">
          <mxGeometry relative="1" as="geometry" />
        </mxCell>
        <mxCell id="fa7prkuAf3Pvqcq8Uyu8-25" value="VERDADE" style="edgeLabel;html=1;align=center;verticalAlign=middle;resizable=0;points=[];" vertex="1" connectable="0" parent="fa7prkuAf3Pvqcq8Uyu8-24">
          <mxGeometry x="-0.0364" relative="1" as="geometry">
            <mxPoint as="offset" />
          </mxGeometry>
        </mxCell>
        <mxCell id="fa7prkuAf3Pvqcq8Uyu8-26" value="" style="edgeStyle=orthogonalEdgeStyle;rounded=0;orthogonalLoop=1;jettySize=auto;html=1;" edge="1" parent="1" source="fa7prkuAf3Pvqcq8Uyu8-12" target="fa7prkuAf3Pvqcq8Uyu8-17">
          <mxGeometry relative="1" as="geometry" />
        </mxCell>
        <mxCell id="fa7prkuAf3Pvqcq8Uyu8-27" value="FALSO" style="edgeLabel;html=1;align=center;verticalAlign=middle;resizable=0;points=[];" vertex="1" connectable="0" parent="fa7prkuAf3Pvqcq8Uyu8-26">
          <mxGeometry x="-0.1292" y="3" relative="1" as="geometry">
            <mxPoint as="offset" />
          </mxGeometry>
        </mxCell>
        <mxCell id="fa7prkuAf3Pvqcq8Uyu8-12" value="se divisores == 2" style="strokeWidth=2;html=1;shape=mxgraph.flowchart.decision;whiteSpace=wrap;" vertex="1" parent="1">
          <mxGeometry x="364" y="490" width="100" height="100" as="geometry" />
        </mxCell>
        <mxCell id="fa7prkuAf3Pvqcq8Uyu8-14" value="&quot;o numero&quot;, x,&quot;é primo portanto é verdadeiro&quot;" style="strokeWidth=2;html=1;shape=mxgraph.flowchart.display;whiteSpace=wrap;" vertex="1" parent="1">
          <mxGeometry x="364" y="700" width="100" height="60" as="geometry" />
        </mxCell>
        <mxCell id="fa7prkuAf3Pvqcq8Uyu8-17" value="&quot;O numero&quot;,x,&quot;não é primo portanto é falso&quot;" style="strokeWidth=2;html=1;shape=mxgraph.flowchart.display;whiteSpace=wrap;" vertex="1" parent="1">
          <mxGeometry x="560" y="510" width="100" height="60" as="geometry" />
        </mxCell>
        <mxCell id="fa7prkuAf3Pvqcq8Uyu8-28" value="" style="verticalLabelPosition=bottom;verticalAlign=top;html=1;shape=mxgraph.flowchart.on-page_reference;" vertex="1" parent="1">
          <mxGeometry x="610" y="715" width="30" height="30" as="geometry" />
        </mxCell>
        <mxCell id="fa7prkuAf3Pvqcq8Uyu8-29" style="edgeStyle=orthogonalEdgeStyle;rounded=0;orthogonalLoop=1;jettySize=auto;html=1;exitX=1;exitY=0.5;exitDx=0;exitDy=0;exitPerimeter=0;entryX=0;entryY=0.5;entryDx=0;entryDy=0;entryPerimeter=0;" edge="1" parent="1" source="fa7prkuAf3Pvqcq8Uyu8-14" target="fa7prkuAf3Pvqcq8Uyu8-28">
          <mxGeometry relative="1" as="geometry" />
        </mxCell>
        <mxCell id="fa7prkuAf3Pvqcq8Uyu8-30" style="edgeStyle=orthogonalEdgeStyle;rounded=0;orthogonalLoop=1;jettySize=auto;html=1;exitX=0.5;exitY=1;exitDx=0;exitDy=0;exitPerimeter=0;entryX=0.5;entryY=0;entryDx=0;entryDy=0;entryPerimeter=0;" edge="1" parent="1" source="fa7prkuAf3Pvqcq8Uyu8-17" target="fa7prkuAf3Pvqcq8Uyu8-28">
          <mxGeometry relative="1" as="geometry" />
        </mxCell>
        <mxCell id="fa7prkuAf3Pvqcq8Uyu8-33" value="&quot;numero negativo ou igual a zero&quot;" style="strokeWidth=2;html=1;shape=mxgraph.flowchart.display;whiteSpace=wrap;" vertex="1" parent="1">
          <mxGeometry x="550" y="365" width="110" height="70" as="geometry" />
        </mxCell>
        <mxCell id="fa7prkuAf3Pvqcq8Uyu8-35" style="edgeStyle=orthogonalEdgeStyle;rounded=0;orthogonalLoop=1;jettySize=auto;html=1;exitX=1;exitY=0.5;exitDx=0;exitDy=0;exitPerimeter=0;entryX=1;entryY=0.5;entryDx=0;entryDy=0;entryPerimeter=0;" edge="1" parent="1" source="fa7prkuAf3Pvqcq8Uyu8-33" target="fa7prkuAf3Pvqcq8Uyu8-28">
          <mxGeometry relative="1" as="geometry" />
        </mxCell>
        <mxCell id="fa7prkuAf3Pvqcq8Uyu8-38" value="fim" style="strokeWidth=2;html=1;shape=mxgraph.flowchart.start_1;whiteSpace=wrap;" vertex="1" parent="1">
          <mxGeometry x="575" y="830" width="100" height="60" as="geometry" />
        </mxCell>
        <mxCell id="fa7prkuAf3Pvqcq8Uyu8-40" style="edgeStyle=orthogonalEdgeStyle;rounded=0;orthogonalLoop=1;jettySize=auto;html=1;exitX=0.5;exitY=1;exitDx=0;exitDy=0;exitPerimeter=0;entryX=0.5;entryY=0;entryDx=0;entryDy=0;entryPerimeter=0;" edge="1" parent="1" source="fa7prkuAf3Pvqcq8Uyu8-28" target="fa7prkuAf3Pvqcq8Uyu8-38">
          <mxGeometry relative="1" as="geometry" />
        </mxCell>
      </root>
    </mxGraphModel>
  </diagram>
</mxfile>
